<?xml version="1.0" encoding="UTF-8"?>
<svg id="_レイヤー_1" data-name="レイヤー_1" xmlns="http://www.w3.org/2000/svg" width="53.975mm" height="11.642mm" version="1.1" viewBox="0 0 153 33">
  <!-- Generator: Adobe Illustrator 29.1.0, SVG Export Plug-In . SVG Version: 2.1.0 Build 142)  -->
  <g>
    <path d="M0,24.406h3.393V5.423H0V0h14.372v5.423h-3.393v6.675h10.854v-6.675h-3.393V0h14.372v5.423h-3.393v18.983h3.393v5.423h-14.372v-5.423h3.393v-6.465h-10.854v6.465h3.393v5.423H0v-5.423Z" fill="#fd5100"/>
    <path d="M45.109,7.841c6.526,0,10.176,4.424,10.176,10.386,0,.714-.169,2.172-.169,2.172h-13.866c.546,2.755,2.755,3.964,5.088,3.964,3.225,0,6.148-2.041,6.148-2.041l2.667,5.007s-3.514,3.009-9.417,3.009c-7.799,0-11.995-5.546-11.995-11.266,0-6.303,4.329-11.222,11.369-11.222v-.008ZM47.695,16.435c0-1.712-1.148-3.171-2.755-3.171-2.12,0-3.136,1.502-3.514,3.171h6.273-.004Z" fill="#fd5100"/>
    <path d="M57.855,5.217h-2.968V0h10.308v21.485c0,2.041.382,2.755,2.032,2.755.47,0,.892-.044.892-.044v5.72s-1.016.123-2.209.123c-3.903,0-8.056-.92-8.056-8.134V5.217Z" fill="#fd5100"/>
    <path d="M71.175,5.217h-2.968V0h10.308v21.485c0,2.041.382,2.755,2.032,2.755.47,0,.891-.044.891-.044v5.72s-1.016.123-2.209.123c-3.903,0-8.056-.92-8.056-8.134V5.217Z" fill="#fd5100"/>
    <path d="M145.37,0h7.63l-.679,20.609h-6.272L145.37,0ZM145.828,23.574h6.694v6.259h-6.694v-6.259Z" fill="#fd5100"/>
    <path d="M57.855,5.217h-2.968V0h10.308v21.485c0,2.041.382,2.755,2.032,2.755.47,0,.892-.044.892-.044v5.72s-1.016.123-2.209.123c-3.903,0-8.056-.92-8.056-8.134V5.217Z" fill="#fd5100"/>
  </g>
  <path d="M134.006,8.027h-3.23c2.124,2.04,3.43,4.903,3.43,8.126v5.549c0,3.223-1.306,6.086-3.43,8.126h3.23c4.546,0,8.232-3.638,8.232-8.126v-5.549c0-4.488-3.686-8.126-8.232-8.126Z" fill="#fd5100"/>
  <path d="M122.761,8.027h-3.229c2.124,2.04,3.43,4.903,3.43,8.126v5.549c0,3.223-1.306,6.086-3.43,8.126h3.229c4.547,0,8.233-3.638,8.233-8.126v-5.549c0-4.488-3.686-8.126-8.233-8.126Z" fill="#fd5100"/>
  <path d="M111.517,8.027h-20.078c-4.547,0-8.232,3.638-8.232,8.126v5.549c0,4.488,3.686,8.126,8.232,8.126h20.078c4.547,0,8.233-3.638,8.233-8.126v-5.549c0-4.488-3.686-8.126-8.233-8.126ZM91.961,20.137c-1.952,0-3.534-1.558-3.534-3.476s1.582-3.476,3.534-3.476,3.534,1.558,3.534,3.476-1.582,3.476-3.534,3.476Z" fill="#fd5100"/>
</svg>