<svg width="120" height="120" viewBox="0 0 120 120" fill="none" xmlns="http://www.w3.org/2000/svg">
<path d="M76.4822 42H43.5161C36.0504 42 30 47.9684 30 55.3313V64.4348C30 71.7976 36.0521 77.766 43.5161 77.766H76.4822C83.9479 77.766 90 71.7976 90 64.4348V55.3313C90 47.9684 83.9479 42 76.4822 42ZM44.3732 61.8673C41.1682 61.8673 38.5707 59.3113 38.5707 56.1647C38.5707 53.0181 41.1682 50.4621 44.3732 50.4621C47.5782 50.4621 50.1757 53.0181 50.1757 56.1647C50.1757 59.3113 47.5782 61.8673 44.3732 61.8673Z" fill="#FD5100"/>
<circle cx="60" cy="60" r="60" fill="black" fill-opacity="0.03"/>
</svg>
